<svg width="57" height="13" viewBox="0 0 57 13" fill="none" xmlns="http://www.w3.org/2000/svg">
<g clip-path="url(#clip0_1_446)">
<path fill-rule="evenodd" clip-rule="evenodd" d="M36.9076 7.05845C36.9407 7.27845 36.9573 7.44768 37.0071 7.61691C37.372 9.19075 38.5829 10.24 40.1588 10.3754C41.5521 10.4938 42.6469 9.95229 43.4597 8.7846C43.8578 8.22614 44.5047 8.1246 45.019 8.58152C45.3175 8.83537 45.3507 9.17383 45.1185 9.49537C44.9858 9.6646 44.8697 9.83383 44.737 10.02C44.2062 10.7646 43.5095 11.2723 42.6469 11.5769C41.2536 12.0677 39.8602 12.1354 38.4834 11.6108C36.6256 10.9169 35.5308 9.52922 35.2156 7.54922C35.0332 6.33076 35.1493 5.11229 35.6967 4.01229C36.4929 2.43845 37.737 1.47383 39.4621 1.18614C40.6066 0.999987 41.7346 1.11845 42.7962 1.64306C44.3057 2.37076 45.218 3.60614 45.5664 5.24768C45.6659 5.7046 45.6991 6.16152 45.7322 6.61845C45.7654 6.90614 45.6327 7.0246 45.3507 7.04152C45.218 7.04152 45.1019 7.04152 44.9692 7.04152C42.3981 7.04152 39.827 7.04152 37.2725 7.04152C37.1564 7.05845 37.0734 7.05845 36.9076 7.05845ZM43.9242 5.33229C43.7085 3.85999 41.9668 2.57383 40.3578 2.67537C38.6825 2.77691 37.0237 4.07999 36.9573 5.33229C39.263 5.33229 41.6019 5.33229 43.9242 5.33229Z" fill="#9B9EA0"/>
<path fill-rule="evenodd" clip-rule="evenodd" d="M23.737 7.00769C23.7536 7.16 23.7701 7.26153 23.7867 7.38C24.1019 9.12307 25.4953 10.3246 27.2204 10.3585C28.5308 10.3754 29.5427 9.83384 30.3057 8.75077C30.7038 8.17538 31.4171 8.10769 31.9147 8.61538C32.1469 8.86923 32.1967 9.17384 31.9644 9.47846C31.8649 9.63076 31.7654 9.76615 31.6493 9.88461C31.0853 10.7308 30.3057 11.2723 29.3602 11.5938C27.9668 12.0677 26.5735 12.1015 25.2299 11.56C23.3057 10.7985 22.2275 9.2923 21.9953 7.19384C21.8791 6.17846 21.9787 5.19692 22.3934 4.26615C23.2062 2.50615 24.5166 1.42307 26.4242 1.16923C27.436 1.03384 28.4479 1.11846 29.3768 1.50769C31.0687 2.21846 32.0474 3.55538 32.4289 5.36615C32.4953 5.7723 32.545 6.2123 32.5616 6.61846C32.5782 6.95692 32.5118 7.02461 32.1635 7.02461C31.5663 7.02461 30.936 7.02461 30.3223 7.02461C28.2654 7.02461 26.2085 7.02461 24.1848 7.02461C24.0355 7.00769 23.9028 7.00769 23.737 7.00769ZM30.7867 5.28153C30.5711 3.82615 28.8791 2.59076 27.2204 2.62461C25.6114 2.65846 23.936 3.97846 23.8033 5.28153C26.1256 5.28153 28.4313 5.28153 30.7867 5.28153Z" fill="#9B9EA0"/>
<path fill-rule="evenodd" clip-rule="evenodd" d="M52.5995 7.78617C52.7322 7.90464 52.7986 7.97233 52.8815 8.04002C53.7773 8.81848 54.673 9.59694 55.5521 10.3754C55.6019 10.4262 55.6848 10.4939 55.7346 10.5446C56.0664 10.8831 56.0995 11.3739 55.7844 11.7123C55.4858 12.0508 55.0213 12.1016 54.673 11.8139C54.0427 11.2893 53.4455 10.7477 52.8318 10.2231C51.9526 9.46156 51.0901 8.70002 50.2109 7.93848C50.1446 7.87079 50.045 7.8031 49.9123 7.70156C49.9123 7.88771 49.8957 8.00617 49.8957 8.12464C49.8957 10.2739 49.8957 8.66617 49.8957 10.8154C49.8957 10.9169 49.8957 11.0185 49.8957 11.12C49.8626 11.5939 49.5142 11.9323 49.0498 11.8985C48.6019 11.8816 48.3033 11.5431 48.2867 11.0693C48.2867 10.9677 48.2867 10.8662 48.2867 10.7646C48.2867 6.51694 48.2867 6.02617 48.2867 1.77848C48.2867 1.6431 48.2867 1.52464 48.2867 1.38925C48.2867 1.08464 48.3199 1.03387 48.6019 1.03387C48.9834 1.01694 49.3649 1.01694 49.7464 1.01694C50.6588 1.01694 51.6043 1.05079 52.5166 1.00002C54.0592 0.932327 55.7844 2.20156 55.9502 4.04617C56.0995 5.70464 54.9882 7.27848 53.3294 7.61694C53.1137 7.66771 52.8815 7.7354 52.5995 7.78617ZM49.7962 6.4831C49.8957 6.50002 49.9621 6.50002 50.0118 6.50002C50.7749 6.50002 51.5545 6.50002 52.3175 6.50002C52.5332 6.50002 52.7654 6.4831 52.981 6.39848C53.6943 6.17848 54.2583 5.73848 54.4408 4.96002C54.7559 3.6231 53.7773 2.40464 52.4337 2.40464C51.6374 2.40464 50.8578 2.40464 50.045 2.40464C49.9455 2.40464 49.8626 2.42156 49.763 2.42156C49.7962 3.7754 49.7962 5.11233 49.7962 6.4831Z" fill="#9B9EA0"/>
<path fill-rule="evenodd" clip-rule="evenodd" d="M17.7654 7.0246C16.2393 7.0246 14.763 7.0246 13.2536 7.0246C13.2536 7.15998 13.237 7.27845 13.237 7.39691C13.237 8.58152 13.237 9.74921 13.237 10.9338C13.237 11.0861 13.237 11.2384 13.2038 11.3569C13.0877 11.7123 12.7227 11.9323 12.3744 11.9154C11.9929 11.8815 11.6777 11.5769 11.628 11.1877C11.6114 11.0861 11.628 11.0015 11.628 10.9C11.628 6.68614 11.6114 6.17845 11.6114 1.98152C11.6114 1.81229 11.628 1.64306 11.6777 1.49075C11.8104 1.13537 12.1754 0.932293 12.5569 0.983062C12.9052 1.03383 13.2038 1.33845 13.237 1.71075C13.2536 1.82922 13.237 1.93075 13.237 2.04922C13.237 4.21537 13.2536 2.67537 13.2536 4.84152C13.2536 4.97691 13.2701 5.09537 13.2701 5.21383C13.5521 5.28152 17.4668 5.28152 17.7654 5.21383C17.7654 5.11229 17.782 5.01075 17.782 4.89229C17.782 3.9446 17.782 2.97998 17.782 2.03229C17.782 1.93075 17.782 1.84614 17.782 1.7446C17.8152 1.32152 18.1303 0.999985 18.545 0.983062C18.9597 0.966139 19.3412 1.28768 19.391 1.71075C19.4076 1.81229 19.391 1.89691 19.391 1.99845C19.391 4.95998 19.391 7.9046 19.391 10.8661C19.391 10.9677 19.391 11.0523 19.391 11.1538C19.3412 11.5769 18.9763 11.9154 18.5616 11.8984C18.1469 11.8815 17.8152 11.5431 17.7654 11.12C17.7654 11.0184 17.7654 10.9338 17.7654 10.8323C17.7654 9.69845 17.7654 8.53075 17.7654 7.39691C17.7654 7.29537 17.7654 7.17691 17.7654 7.0246Z" fill="#9B9EA0"/>
<path fill-rule="evenodd" clip-rule="evenodd" d="M4.56161 11.983C3.48341 11.9661 2.47156 11.7292 1.54265 11.1538C1.14454 10.9169 0.779615 10.6123 0.481037 10.2569C0.331748 10.0707 0.149284 9.88459 0.0829328 9.64766C-0.0165932 9.34305 -0.0331809 9.00459 0.24881 8.73382C0.563975 8.4292 0.995255 8.31074 1.42653 8.59843C1.84123 8.90305 2.04028 9.29228 2.38862 9.64766C2.88625 10.1554 3.53317 10.4261 4.22985 10.5107C4.87677 10.5784 5.5071 10.5615 6.13743 10.3415C6.38625 10.24 6.65165 10.1215 6.86729 9.95228C7.2654 9.49536 7.38151 8.85228 6.90047 8.41228C6.66824 8.2092 6.36966 8.0569 6.07108 7.92151C5.34123 7.59997 4.57819 7.37997 3.81516 7.1769C3.18483 7.02459 2.58767 6.82151 1.95734 6.63536C1.72511 6.56766 1.49289 6.43228 1.27725 6.31382C0.696677 5.99228 0.364923 5.48459 0.265397 4.84151C0.0829328 3.50459 0.563975 2.30305 1.70853 1.71074C3.49999 0.813819 5.35781 0.898434 7.14928 1.93074C7.48104 2.1169 7.7962 2.40459 8.07819 2.65843C8.29383 2.84459 8.45971 3.11536 8.54265 3.40305C8.62559 3.75843 8.45971 4.13074 8.02843 4.23228C7.6635 4.3169 7.33175 4.19843 7.06634 3.91074C7.01658 3.85997 6.96682 3.79228 6.93364 3.74151C6.51895 3.09843 5.90521 2.74305 5.17535 2.60766C4.44549 2.47228 3.71563 2.4892 3.01895 2.7769C2.77014 2.87843 2.50473 3.01382 2.30568 3.19997C2.0071 3.60613 1.89099 4.14767 2.28909 4.65536C2.60426 4.95997 2.96919 5.1292 3.36729 5.21382C4.24644 5.43382 5.14217 5.67074 6.02132 5.89074C6.5853 6.04305 7.1327 6.2292 7.64691 6.53382C8.31042 6.8892 8.79146 7.41382 8.95734 8.17536C9.15639 9.10613 8.95734 9.98613 8.24407 10.663C7.43127 11.4077 6.50236 11.8138 5.42417 11.9323C5.12559 11.9661 4.82701 11.9661 4.56161 11.983Z" fill="#9B9EA0"/>
</g>
<defs>
<clipPath id="clip0_1_446">
<rect width="57" height="13" fill="white"/>
</clipPath>
</defs>
</svg>
