<svg width="65" height="65" viewBox="0 0 65 65" fill="none" xmlns="http://www.w3.org/2000/svg">
<g clip-path="url(#clip0_115_355)">
<path d="M44.4166 13H46.5833C46.8706 13 47.1462 12.8859 47.3493 12.6827C47.5525 12.4795 47.6666 12.204 47.6666 11.9167C47.6666 11.6293 47.5525 11.3538 47.3493 11.1506C47.1462 10.9475 46.8706 10.8333 46.5833 10.8333H44.4166C44.1293 10.8333 43.8538 10.9475 43.6506 11.1506C43.4474 11.3538 43.3333 11.6293 43.3333 11.9167C43.3333 12.204 43.4474 12.4795 43.6506 12.6827C43.8538 12.8859 44.1293 13 44.4166 13Z" fill="#0495CE"/>
<path d="M28.1666 13H40.0833C40.3706 13 40.6462 12.8859 40.8493 12.6827C41.0525 12.4795 41.1666 12.204 41.1666 11.9167C41.1666 11.6293 41.0525 11.3538 40.8493 11.1506C40.6462 10.9475 40.3706 10.8333 40.0833 10.8333H28.1666C27.8793 10.8333 27.6038 10.9475 27.4006 11.1506C27.1974 11.3538 27.0833 11.6293 27.0833 11.9167C27.0833 12.204 27.1974 12.4795 27.4006 12.6827C27.6038 12.8859 27.8793 13 28.1666 13Z" fill="#0495CE"/>
<path d="M28.1666 18.4167H46.5833C46.8706 18.4167 47.1462 18.3025 47.3493 18.0994C47.5525 17.8962 47.6666 17.6207 47.6666 17.3333C47.6666 17.046 47.5525 16.7705 47.3493 16.5673C47.1462 16.3641 46.8706 16.25 46.5833 16.25H28.1666C27.8793 16.25 27.6038 16.3641 27.4006 16.5673C27.1974 16.7705 27.0833 17.046 27.0833 17.3333C27.0833 17.6207 27.1974 17.8962 27.4006 18.0994C27.6038 18.3025 27.8793 18.4167 28.1666 18.4167Z" fill="#0495CE"/>
<path d="M46.5833 21.6667H37.9166C37.6293 21.6667 37.3538 21.7808 37.1506 21.984C36.9474 22.1871 36.8333 22.4627 36.8333 22.75C36.8333 23.0373 36.9474 23.3129 37.1506 23.516C37.3538 23.7192 37.6293 23.8333 37.9166 23.8333H46.5833C46.8706 23.8333 47.1462 23.7192 47.3493 23.516C47.5525 23.3129 47.6666 23.0373 47.6666 22.75C47.6666 22.4627 47.5525 22.1871 47.3493 21.984C47.1462 21.7808 46.8706 21.6667 46.5833 21.6667Z" fill="#0495CE"/>
<path d="M58.5 31.4167V24.9167C58.5 24.342 58.2717 23.7909 57.8654 23.3846C57.4591 22.9783 56.908 22.75 56.3333 22.75H54.1667V5.41667C54.1649 3.98061 53.5937 2.60385 52.5783 1.5884C51.5628 0.572955 50.1861 0.00172018 48.75 0L23.8333 0C23.546 6.13572e-05 23.2705 0.114238 23.0674 0.317417L8.98408 14.4008C8.78091 14.6039 8.66673 14.8794 8.66667 15.1667V18.4167H7.58333C6.72138 18.4167 5.89473 18.7591 5.28524 19.3686C4.67574 19.9781 4.33333 20.8047 4.33333 21.6667V58.5C4.33119 59.3542 4.49785 60.2004 4.82375 60.99C5.14965 61.7796 5.62835 62.497 6.23236 63.101C6.83637 63.705 7.55377 64.1837 8.34336 64.5096C9.13294 64.8355 9.97914 65.0021 10.8333 65H54.1667C55.0209 65.0021 55.8671 64.8355 56.6566 64.5096C57.4462 64.1837 58.1636 63.705 58.7676 63.101C59.3717 62.497 59.8504 61.7796 60.1763 60.99C60.5021 60.2004 60.6688 59.3542 60.6667 58.5V33.5833C60.6667 33.0087 60.4384 32.4576 60.0321 32.0513C59.6257 31.6449 59.0746 31.4167 58.5 31.4167ZM54.1667 24.9167H56.3333V31.4167H54.1667V24.9167ZM22.75 3.6985V10.8333C22.75 11.6953 22.4076 12.5219 21.7981 13.1314C21.1886 13.7409 20.362 14.0833 19.5 14.0833H12.3652L22.75 3.6985ZM10.8333 62.8333C10.2636 62.8356 9.69911 62.7251 9.17233 62.5082C8.64555 62.2912 8.16694 61.9721 7.76409 61.5692C7.36125 61.1664 7.04214 60.6878 6.82519 60.161C6.60823 59.6342 6.49771 59.0697 6.5 58.5V21.6667C6.5 21.3793 6.61414 21.1038 6.8173 20.9006C7.02047 20.6975 7.29602 20.5833 7.58333 20.5833H8.66667V54.1667C8.66839 55.6027 9.23962 56.9795 10.2551 57.9949C11.2705 59.0104 12.6473 59.5816 14.0833 59.5833H15.0128C14.7734 60.5108 14.2333 61.3328 13.4771 61.9208C12.7209 62.5089 11.7912 62.8297 10.8333 62.8333ZM15.1667 57.4167H14.0833C13.2214 57.4167 12.3947 57.0743 11.7852 56.4648C11.1757 55.8553 10.8333 55.0286 10.8333 54.1667V16.25H19.5C20.9361 16.2483 22.3128 15.677 23.3283 14.6616C24.3437 13.6461 24.9149 12.2694 24.9167 10.8333V2.16667H48.75C49.612 2.16667 50.4386 2.50908 51.0481 3.11857C51.6576 3.72806 52 4.55471 52 5.41667V31.4167H17.3333C16.7587 31.4167 16.2076 31.6449 15.8013 32.0513C15.3949 32.4576 15.1667 33.0087 15.1667 33.5833V57.4167ZM58.5 58.5C58.5023 59.0697 58.3918 59.6342 58.1748 60.161C57.9579 60.6878 57.6388 61.1664 57.2359 61.5692C56.8331 61.9721 56.3545 62.2912 55.8277 62.5082C55.3009 62.7251 54.7364 62.8356 54.1667 62.8333H15.6737C16.7433 61.6436 17.3346 60.0999 17.3333 58.5V33.5833H58.5V58.5Z" fill="#0495CE"/>
<path d="M22.75 49.8333H37.9166C38.4913 49.8333 39.0424 49.6051 39.4487 49.1987C39.855 48.7924 40.0833 48.2413 40.0833 47.6667V39C40.0833 38.4254 39.855 37.8743 39.4487 37.4679C39.0424 37.0616 38.4913 36.8333 37.9166 36.8333H22.75C22.1753 36.8333 21.6242 37.0616 21.2179 37.4679C20.8116 37.8743 20.5833 38.4254 20.5833 39V47.6667C20.5833 48.2413 20.8116 48.7924 21.2179 49.1987C21.6242 49.6051 22.1753 49.8333 22.75 49.8333ZM22.75 39H37.9166V47.6667H22.75V39Z" fill="#0495CE"/>
<path d="M33.5833 42.25H27.0833C26.796 42.25 26.5205 42.3641 26.3173 42.5673C26.1141 42.7705 26 43.046 26 43.3333C26 43.6207 26.1141 43.8962 26.3173 44.0994C26.5205 44.3025 26.796 44.4167 27.0833 44.4167H33.5833C33.8707 44.4167 34.1462 44.3025 34.3494 44.0994C34.5525 43.8962 34.6667 43.6207 34.6667 43.3333C34.6667 43.046 34.5525 42.7705 34.3494 42.5673C34.1462 42.3641 33.8707 42.25 33.5833 42.25Z" fill="#0495CE"/>
</g>
<defs>
<clipPath id="clip0_115_355">
<rect width="65" height="65" fill="white"/>
</clipPath>
</defs>
</svg>
