<svg width="65" height="65" viewBox="0 0 65 65" fill="none" xmlns="http://www.w3.org/2000/svg">
<g clip-path="url(#clip0_115_312)">
<path d="M3.25015 23.8333H14.0835C15.8784 23.8333 17.3335 22.3782 17.3335 20.5833V17.3333H19.5002V56.3333H11.9169C8.9268 56.3369 6.50378 58.7599 6.50015 61.75V62.8333C6.50015 64.0299 7.47022 65 8.66685 65H39.0002C40.1968 65 41.1669 64.0299 41.1669 62.8333V61.75C41.1632 58.7599 38.7402 56.3369 35.7502 56.3333H28.1669V35.75H34.7817C35.3891 35.7491 35.98 35.5519 36.4662 35.1878L42.2079 30.8793C42.9143 30.349 43.331 29.5179 43.3336 28.6347V17.3333H49.8336V28.0215C49.7319 28.068 49.6342 28.1223 49.5411 28.184L37.6385 37.8083C37.1886 38.1706 36.9028 38.6981 36.8447 39.2729C36.7866 39.8476 36.9613 40.4216 37.3297 40.8666L38.7186 42.5435C39.0639 42.9567 39.5503 43.2269 40.0836 43.3018V53.0833C40.0836 54.8782 41.5387 56.3333 43.3336 56.3333H58.5003C60.2952 56.3333 61.7503 54.8782 61.7503 53.0833V43.3008C62.2837 43.2265 62.7703 42.9561 63.1153 42.5425L64.5041 40.8655C64.8723 40.4206 65.0471 39.8467 64.9892 39.2721C64.9314 38.6975 64.6459 38.1699 64.1964 37.8073L61.7503 35.8314V30.3334C61.7503 29.1368 60.7802 28.1667 59.5836 28.1667H57.4169C56.2202 28.1667 55.2502 29.1368 55.2502 30.3334V30.5761L52.2926 28.1841C52.1994 28.1228 52.1017 28.0688 52.0002 28.0227V17.3333H62.8335C63.6324 17.3332 64.3664 16.8934 64.7433 16.189C65.1202 15.4847 65.0791 14.63 64.6361 13.9652L61.7502 9.63197C61.3475 9.02784 60.6692 8.66542 59.9432 8.6667H51.0598L28.0357 2.38336C27.6475 0.979873 26.373 0.00597093 24.9169 0H22.7502C21.2641 0.00479807 19.9706 1.01687 19.6085 2.45811L2.98039 8.69378C1.30054 8.83058 0.00527053 10.2312 0.000152588 11.9167V20.5834C0.000152588 22.3783 1.45525 23.8333 3.25015 23.8333ZM48.7502 54.1667V48.75C48.7502 48.1517 49.2352 47.6667 49.8335 47.6667H52.0002C52.5984 47.6667 53.0835 48.1517 53.0835 48.75V54.1667H48.7502ZM58.5002 54.1667H55.2502V48.75C55.2502 46.9551 53.7951 45.5 52.0002 45.5H49.8335C48.0385 45.5 46.5835 46.9551 46.5835 48.75V54.1667H43.3335C42.7352 54.1667 42.2502 53.6817 42.2502 53.0834V42.4668L50.9169 35.593L59.5836 42.4668V53.0834C59.5836 53.6817 59.0985 54.1667 58.5002 54.1667ZM57.4169 30.3333H59.5836V34.0794L57.4169 32.3277V30.3333ZM62.8336 39.4854L61.4469 41.1613C61.4396 41.1657 61.4304 41.1657 61.423 41.1613L61.4068 41.1504L51.5907 33.3666C51.1962 33.0533 50.6376 33.0533 50.2431 33.3666L40.3848 41.1666L39.0003 39.4939L50.93 29.8684L62.8336 39.4854ZM9.22471 8.6667L19.5002 4.81332V8.6667H9.22471ZM28.1669 4.6681L42.8266 8.6667H28.1669V4.6681ZM50.9169 10.8333H56.9684L53.0836 14.7181L49.1987 10.8333H50.9169ZM36.385 15.1667H28.6153L32.5002 11.2819L36.385 15.1667ZM35.1153 10.8333H42.885L39.0002 14.7181L35.1153 10.8333ZM41.6153 15.1667L45.9486 10.8334H46.135L50.4683 15.1667H41.6153ZM29.885 10.8333L26.0002 14.7181L22.1153 10.8333H29.885ZM17.3336 10.8333H19.0517L23.385 15.1666H17.3335V10.8333H17.3336ZM39.0002 61.75V62.8333H8.66685V61.75C8.66685 59.9551 10.122 58.5 11.9169 58.5H35.7502C37.5451 58.5 39.0002 59.9551 39.0002 61.75ZM21.6669 56.3334V17.3333H26.0002V56.3333H21.6669V56.3334ZM35.1652 33.4556C35.0544 33.5383 34.92 33.5832 34.7817 33.5834H28.1669V29.2501H40.7736L35.1652 33.4556ZM41.1669 27.0833H28.1669V17.3333H41.1669V27.0833ZM62.8336 15.1667H55.6944L59.9746 10.8865L62.8336 15.1667ZM21.6669 3.25C21.6669 2.65173 22.1519 2.1667 22.7502 2.1667H24.9169C25.5151 2.1667 26.0002 2.65173 26.0002 3.25V8.6667H21.6669V3.25ZM2.16686 11.9167C2.16686 11.3184 2.65189 10.8334 3.25015 10.8334H5.41686V14.0834C5.41686 14.6817 5.90189 15.1667 6.50015 15.1667C7.09842 15.1667 7.58345 14.6817 7.58345 14.0834V10.8334H9.75015V14.0834C9.75015 14.6817 10.2352 15.1667 10.8335 15.1667C11.4317 15.1667 11.9167 14.6817 11.9167 14.0834V10.8334H15.1667V20.5834C15.1667 21.1817 14.6817 21.6667 14.0835 21.6667H3.25015C2.65189 21.6667 2.16686 21.1817 2.16686 20.5834V11.9167Z" fill="#0495CE"/>
<path fill-rule="evenodd" clip-rule="evenodd" d="M33.2661 19.8174C32.843 19.3945 32.1573 19.3945 31.7342 19.8174L30.6509 20.9007C30.3693 21.1727 30.2563 21.5755 30.3555 21.9543C30.4546 22.333 30.7504 22.6289 31.1291 22.7279C31.5079 22.8271 31.9107 22.7142 32.1827 22.4325L33.266 21.3492C33.6889 20.9262 33.6889 20.2405 33.2661 19.8174Z" fill="#0495CE"/>
<path fill-rule="evenodd" clip-rule="evenodd" d="M37.1509 19.8174L32.8176 24.1507C32.536 24.4227 32.423 24.8255 32.5222 25.2043C32.6213 25.583 32.9171 25.8789 33.2958 25.9779C33.6746 26.0771 34.0774 25.9642 34.3494 25.6825L38.6827 21.3492C39.0932 20.9241 39.0873 20.2484 38.6695 19.8305C38.2516 19.4128 37.5759 19.4069 37.1509 19.8174Z" fill="#0495CE"/>
</g>
<defs>
<clipPath id="clip0_115_312">
<rect width="65" height="65" fill="white"/>
</clipPath>
</defs>
</svg>
