<svg width="20" height="18" viewBox="0 0 20 18" fill="none" xmlns="http://www.w3.org/2000/svg">
<g clip-path="url(#clip0_31_688)">
<path d="M18.5466 0.19934L0.782846 7.41496C0.782846 7.41496 -0.0598877 7.71046 0.00646926 8.26022C0.0728263 8.80998 0.756303 9.06424 0.756303 9.06424L5.22213 10.6242L5.22877 10.6311V10.6242L15.9521 3.56663C15.9521 3.56663 16.5692 3.17492 16.5493 3.56663C16.5493 3.56663 16.6621 3.63535 16.3303 3.95833C15.9985 4.28132 7.90295 11.8131 7.90295 11.8131L7.88968 11.9574L15.1757 17.7436C16.39 18.2934 16.8346 17.1457 16.8346 17.1457L19.9998 0.632278C19.9998 -0.467245 18.54 0.19934 18.5466 0.19934Z" fill="#1393E2"/>
<path d="M10.6768 14.1701L7.79029 16.8983C7.79029 16.8983 7.56467 17.077 7.31915 16.967L7.86992 11.9023" fill="#1393E2"/>
</g>
<defs>
<clipPath id="clip0_31_688">
<rect width="20" height="17.8947" fill="white"/>
</clipPath>
</defs>
</svg>
